<?xml version="1.0" encoding="UTF-8"?>
<svg xmlns="http://www.w3.org/2000/svg" xmlns:xlink="http://www.w3.org/1999/xlink" width="784px" height="160px" viewBox="0 0 784 160" version="1.1">
  <title>Logos / IPV / PV_lmv_light</title>
  <g id="Logos-/-IPV-/-PV_lmv_light" stroke="none" stroke-width="1" fill="none" fill-rule="evenodd">
    <path d="M79.6683678,0 C35.6682452,0 0,35.6792488 0,79.6912676 C0,123.704038 35.6682452,159.383286 79.6683678,159.383286 C123.66849,159.383286 159.336736,123.704038 159.336736,79.6912676 C159.336736,35.6792488 123.66849,0 79.6683678,0 M298.596989,43.4653897 L298.678851,3.88830047 C298.681096,3.06426291 298.222261,2.39947418 297.587701,2.05468545 C296.974169,1.67459155 296.169893,1.60473239 295.454981,2.01487324 L261.127195,21.6956244 C258.593464,23.1476432 256.487778,25.244169 255.02341,27.7726197 L230.000743,70.9643568 L230.042046,70.9891455 L187.609923,143.884545 C187.594904,143.909333 187.582889,143.934873 187.568621,143.960413 L181.776483,153.911211 C180.967701,155.300883 181.970981,157.042855 183.578782,157.042855 L195.174322,157.027831 L207.60718,157.011305 L229.413494,156.983512 L233.239625,156.979005 C234.401356,156.977502 235.474475,156.359286 236.059471,155.354967 L271.233586,94.9215399 L296.343364,51.7801315 C297.813739,49.2561878 298.590981,46.3874554 298.596989,43.4653897 M365.067272,157.807925 C371.454169,157.807925 375.828498,155.444732 378.540958,151.857127 L378.540958,157.107831 L391.926782,157.107831 L391.926782,94.0963756 L378.540958,94.0963756 L378.540958,118.601164 C376.178444,115.099944 371.366307,112.649615 365.067272,112.649615 C354.218184,112.649615 345.731609,121.313653 345.731609,135.141258 C345.731609,148.880977 354.306046,157.807925 365.067272,157.807925 L365.067272,157.807925 Z M359.380268,135.141258 C359.380268,128.140319 363.929571,124.376939 369.091655,124.376939 C374.078766,124.376939 378.628069,128.227455 378.628069,135.141258 C378.628069,142.142948 374.078766,145.993465 369.091655,145.993465 C363.929571,145.993465 359.380268,142.055061 359.380268,135.141258 L359.380268,135.141258 Z M420.772575,157.807925 C431.708774,157.807925 439.495456,151.594216 441.595134,142.492995 L427.771502,142.492995 C426.721663,145.293371 424.097065,146.780695 420.334766,146.780695 C416.048299,146.780695 412.023165,144.068207 411.586107,138.379568 L441.94508,138.379568 C442.120054,136.97938 442.207916,135.666329 442.207916,134.441164 C442.207916,121.051493 433.196421,112.649615 420.334766,112.649615 C407.386751,112.649615 398.287395,121.226516 398.287395,135.141258 C398.287395,149.056 407.91167,157.807925 420.772575,157.807925 L420.772575,157.807925 Z M411.673218,130.065577 C412.460973,125.252056 415.785464,122.888864 420.247655,122.888864 C424.709847,122.888864 428.471395,125.339192 428.471395,130.065577 L411.673218,130.065577 Z M482.54036,157.107831 L499.51351,157.107831 L521.298797,95.4094272 L506.338215,95.4094272 L491.026935,141.880038 L475.716406,95.4094272 L460.667962,95.4094272 L482.54036,157.107831 Z M525.148207,157.107831 L538.534031,157.107831 L538.534031,113.349709 L525.148207,113.349709 L525.148207,157.107831 Z M524.098368,100.222197 C524.098368,104.598535 527.51072,108.099005 531.88505,108.099005 C536.172268,108.099005 539.671732,104.598535 539.671732,100.222197 C539.671732,95.9344977 536.172268,92.433277 531.88505,92.433277 C527.51072,92.433277 524.098368,95.9344977 524.098368,100.222197 L524.098368,100.222197 Z M544.34269,142.755155 C544.955471,151.157033 552.829264,157.807925 564.553218,157.807925 C575.489418,157.807925 582.226261,151.944263 582.226261,144.330366 C582.051287,128.052432 558.341295,132.515906 558.341295,125.95215 C558.341295,123.851869 560.091027,122.626704 563.153433,122.626704 C566.914981,122.626704 569.277494,124.551962 569.627441,127.527362 L582.051287,127.527362 C581.176421,118.951211 574.876636,112.649615 563.59049,112.649615 C552.129372,112.649615 545.742475,118.776188 545.742475,126.215061 C545.742475,142.317972 569.627441,137.76661 569.627441,144.24323 C569.627441,146.255624 567.789847,147.830836 564.378245,147.830836 C560.703808,147.830836 557.903487,145.818441 557.641402,142.755155 L544.34269,142.755155 Z M608.412161,157.807925 C619.34836,157.807925 627.135042,151.594216 629.23472,142.492995 L615.411088,142.492995 C614.361249,145.293371 611.736651,146.780695 607.974352,146.780695 C603.687134,146.780695 599.662751,144.068207 599.224943,138.379568 L629.584667,138.379568 C629.75964,136.97938 629.846751,135.666329 629.846751,134.441164 C629.846751,121.051493 620.835257,112.649615 607.974352,112.649615 C595.025586,112.649615 585.926981,121.226516 585.926981,135.141258 C585.926981,149.056 595.550506,157.807925 608.412161,157.807925 L608.412161,157.807925 Z M599.312805,130.065577 C600.100559,125.252056 603.42505,122.888864 607.887241,122.888864 C612.348682,122.888864 616.110981,125.339192 616.110981,130.065577 L599.312805,130.065577 Z M635.735011,113.349709 L635.735011,138.991775 C635.735011,150.806986 642.034046,157.807925 652.008268,157.807925 C658.045218,157.807925 662.506659,155.53262 665.044146,152.207174 L665.044146,157.107831 L678.429969,157.107831 L678.429969,113.349709 L665.044146,113.349709 L665.044146,137.24154 C665.044146,143.193089 661.894628,146.430648 656.820406,146.430648 C651.745433,146.430648 649.120835,143.193089 649.120835,137.24154 L649.120835,113.349709 L635.735011,113.349709 Z M349.756443,79.8484131 L363.405102,79.8484131 L363.405102,57.7068169 L372.67868,57.7068169 C388.427018,57.7068169 394.02691,47.7304789 394.02691,38.0155493 C394.02691,27.25123 387.814987,18.1500094 372.67868,18.1500094 L349.756443,18.1500094 L349.756443,79.8484131 Z M371.54173,29.4393991 C377.490818,29.4393991 380.028305,32.8527324 380.028305,37.5783662 C380.028305,42.304 377.490818,45.7173333 371.54173,45.7173333 L363.405102,45.7173333 L363.405102,29.4393991 L371.54173,29.4393991 Z M394.524795,57.8818404 C394.524795,71.7973333 404.236182,80.548507 417.097087,80.548507 C430.045853,80.548507 440.020075,71.7973333 440.020075,57.8818404 C440.020075,44.0542347 430.133715,35.3901972 417.27206,35.3901972 C404.499018,35.3901972 394.524795,44.0542347 394.524795,57.8818404 L394.524795,57.8818404 Z M417.27206,47.0296338 C421.997087,47.0296338 426.371416,50.4429671 426.371416,57.8818404 C426.371416,65.3207136 421.909225,68.8211831 417.097087,68.8211831 C412.2857,68.8211831 408.173454,65.3207136 408.173454,57.8818404 C408.173454,50.4429671 412.460673,47.0296338 417.27206,47.0296338 L417.27206,47.0296338 Z M446.518864,79.8484131 L459.904688,79.8484131 L459.904688,16.8369577 L446.518864,16.8369577 L446.518864,79.8484131 Z M469.764765,79.8484131 L483.150589,79.8484131 L483.150589,36.0902911 L469.764765,36.0902911 L469.764765,79.8484131 Z M468.714175,22.9627793 C468.714175,27.3391174 472.126527,30.8395869 476.500857,30.8395869 C480.788075,30.8395869 484.287539,27.3391174 484.287539,22.9627793 C484.287539,18.6750798 480.788075,15.1738592 476.500857,15.1738592 C472.126527,15.1738592 468.714175,18.6750798 468.714175,22.9627793 L468.714175,22.9627793 Z M495.730634,47.2046573 L495.730634,64.6206197 C495.730634,75.9978967 502.117531,79.8484131 511.129025,79.8484131 L519.265654,79.8484131 L519.265654,68.4711362 L513.228703,68.4711362 C510.254159,68.4711362 509.116458,67.3338592 509.116458,64.7956432 L509.116458,47.2046573 L519.440627,47.2046573 L519.440627,36.0902911 L509.116458,36.0902911 L509.116458,23.0506667 L496.6055,23.0506667 L496.6055,29.4393991 C496.6055,33.464939 493.718067,36.0902911 489.606573,36.0902911 L488.206788,36.0902911 L488.206788,47.2046573 L495.730634,47.2046573 Z M550.368075,31.4525446 L558.066895,16.8369577 L545.643048,16.8369577 L538.819094,31.4525446 L550.368075,31.4525446 Z M567.603309,57.1817465 C567.603309,43.8792113 558.591815,35.3901972 545.818021,35.3901972 C532.782144,35.3901972 523.683539,44.0542347 523.683539,57.8818404 C523.683539,71.7973333 533.394926,80.548507 546.25583,80.548507 C557.192029,80.548507 564.978711,74.3347981 567.078389,65.3207136 L553.254757,65.3207136 C552.204918,68.0339531 549.58032,69.521277 545.818021,69.521277 C541.443692,69.521277 537.50642,66.8959249 537.069362,61.1201502 L567.428336,61.1201502 C567.603309,59.8070986 567.603309,58.4947981 567.603309,57.1817465 L567.603309,57.1817465 Z M553.867539,52.8932958 L537.156474,52.8932958 C537.856366,47.9926385 541.268719,45.7173333 545.643048,45.7173333 C550.10524,45.7173333 553.867539,48.0805258 553.867539,52.8932958 L553.867539,52.8932958 Z M593.657792,80.548507 C604.593991,80.548507 612.380673,74.0726385 614.655324,64.0084131 L600.394634,64.0084131 C599.169822,67.1588357 597.070144,68.9962066 593.394956,68.9962066 C588.583569,68.9962066 584.908382,65.2335775 584.908382,57.8818404 C584.908382,50.6179906 588.583569,46.8546103 593.394956,46.8546103 C597.070144,46.8546103 599.256933,48.7806197 600.394634,51.8431549 L614.655324,51.8431549 C612.380673,41.4288826 604.593991,35.3901972 593.657792,35.3901972 C580.796887,35.3901972 571.260474,44.1421221 571.260474,57.8818404 C571.260474,71.7973333 580.796887,80.548507 593.657792,80.548507 L593.657792,80.548507 Z M620.542834,36.0902911 L620.542834,79.8484131 L634.01652,79.8484131 L634.01652,56.0444695 C634.01652,50.0929202 637.078926,46.7674742 642.24101,46.7674742 C647.315232,46.7674742 649.93983,50.0929202 649.93983,56.0444695 L649.93983,79.8484131 L663.238543,79.8484131 L663.238543,54.2063474 C663.238543,42.4790235 657.026619,35.3901972 647.052397,35.3901972 C641.016198,35.3901972 636.554006,37.7533897 634.01652,40.9916995 L634.01652,36.0902911 L620.542834,36.0902911 Z M671.794956,79.8484131 L685.18078,79.8484131 L685.18078,36.0902911 L671.794956,36.0902911 L671.794956,79.8484131 Z M670.745117,22.9627793 C670.745117,27.3391174 674.15747,30.8395869 678.531799,30.8395869 C682.819018,30.8395869 686.318481,27.3391174 686.318481,22.9627793 C686.318481,18.6750798 682.819018,15.1738592 678.531799,15.1738592 C674.15747,15.1738592 670.745117,18.6750798 670.745117,22.9627793 L670.745117,22.9627793 Z M713.597025,80.548507 C724.533225,80.548507 732.319907,74.0726385 734.594558,64.0084131 L720.333868,64.0084131 C719.109056,67.1588357 717.009378,68.9962066 713.33419,68.9962066 C708.522052,68.9962066 704.847615,65.2335775 704.847615,57.8818404 C704.847615,50.6179906 708.522052,46.8546103 713.33419,46.8546103 C717.009378,46.8546103 719.196167,48.7806197 720.333868,51.8431549 L734.594558,51.8431549 C732.319907,41.4288826 724.533225,35.3901972 713.597025,35.3901972 C700.736121,35.3901972 691.198956,44.1421221 691.198956,57.8818404 C691.198956,71.7973333 700.736121,80.548507 713.597025,80.548507 L713.597025,80.548507 Z M737.866481,57.8818404 C737.866481,71.7973333 747.577868,80.548507 760.438772,80.548507 C773.387539,80.548507 783.361761,71.7973333 783.361761,57.8818404 C783.361761,44.0542347 773.47465,35.3901972 760.613746,35.3901972 C747.839952,35.3901972 737.866481,44.0542347 737.866481,57.8818404 L737.866481,57.8818404 Z M760.613746,47.0296338 C765.338021,47.0296338 769.713102,50.4429671 769.713102,57.8818404 C769.713102,65.3207136 765.25091,68.8211831 760.438772,68.8211831 C755.626634,68.8211831 751.51514,65.3207136 751.51514,57.8818404 C751.51514,50.4429671 755.801608,47.0296338 760.613746,47.0296338 L760.613746,47.0296338 Z" id="PV_logotipo_medio-vector" fill="#FFFFFF"></path>
  </g>
</svg>
